name Run_200 01_newCOP3_v24.mot
datacolumns 19
datarows 51
range 0.033333 0.08541700000000001
DataType=double
version=3
OpenSimVersion=4.3-2021-08-27-4bc7ad9
endheader
time	R_ground_force_vx	R_ground_force_vy	R_ground_force_vz	R_ground_force_px	R_ground_force_py	R_ground_force_pz	L_ground_force_vx	L_ground_force_vy	L_ground_force_vz	L_ground_force_px	L_ground_force_py	L_ground_force_pz	R_ground_torque_x	R_ground_torque_y	R_ground_torque_z	L_ground_torque_x	L_ground_torque_y	L_ground_torque_z
0.033333	0	0	0	0	0	0	86.14308200000001	419.44043	10.386674	0.838714	0	-0.309987	0	0	0	0	-8.269177000000001	0
0.034375	0	0	0	0	0	0	85.40044399999999	411.404114	9.593215000000001	0.839414	0	-0.310143	0	0	0	0	-7.833821	0
0.035417	0	0	0	0	0	0	84.616737	403.117493	8.776213	0.840136	0	-0.310309	0	0	0	0	-7.401444	0
0.036458	0	0	0	0	0	0	83.789154	394.623657	7.941407	0.840866	0	-0.310485	0	0	0	0	-6.972849	0
0.0375	0	0	0	0	0	0	82.91449	385.959442	7.094449	0.841591	0	-0.310669	0	0	0	0	-6.548828	0
0.038542	0	0	0	0	0	0	81.989738	377.157928	6.24093	0.842298	0	-0.310861	0	0	0	0	-6.130155	0
0.039583	0	0	0	0	0	0	81.01243599999999	368.250122	5.386386	0.842973	0	-0.311061	0	0	0	0	-5.717587	0
0.040625	0	0	0	0	0	0	79.980942	359.265381	4.536294	0.843605	0	-0.311266	0	0	0	0	-5.311862	0
0.041667	0	0	0	0	0	0	78.894554	350.231964	3.696043	0.844182	0	-0.311476	0	0	0	0	-4.91369	0
0.042708	0	0	0	0	0	0	77.75361599999999	341.177094	2.870907	0.8446939999999999	0	-0.311689	0	0	0	0	-4.523755	0
0.04375	0	0	0	0	0	0	76.559494	332.126953	2.066	0.845131	0	-0.311903	0	0	0	0	-4.142709	0
0.044792	0	0	0	0	0	0	75.31455200000001	323.106445	1.286238	0.845486	0	-0.312115	0	0	0	0	-3.771175	0
0.045833	0	0	0	0	0	0	74.022064	314.139313	0.536281	0.845753	0	-0.312323	0	0	0	0	-3.409738	0
0.046875	0	0	0	0	0	0	72.68611900000001	305.247681	-0.179511	0.845925	0	-0.312524	0	0	0	0	-3.058946	0
0.047917	0	0	0	0	0	0	71.31147799999999	296.452179	-0.857136	0.846	0	-0.312713	0	0	0	0	-2.719309	0
0.048958	0	0	0	0	0	0	69.903381	287.771454	-1.493	0.845974	0	-0.312889	0	0	0	0	-2.391294	0
0.05	0	0	0	0	0	0	68.46745300000001	279.222321	-2.083965	0.845846	0	-0.313046	0	0	0	0	-2.075328	0
0.051042	0	0	0	0	0	0	67.009491	270.819458	-2.627396	0.845616	0	-0.31318	0	0	0	0	-1.771792	0
0.052083	0	0	0	0	0	0	65.535309	262.575378	-3.121201	0.845286	0	-0.313288	0	0	0	0	-1.481024	0
0.053125	0	0	0	0	0	0	64.05059799999999	254.500366	-3.563862	0.844859	0	-0.313365	0	0	0	0	-1.203316	0
0.054167	0	0	0	0	0	0	62.560768	246.602417	-3.954463	0.844338	0	-0.313408	0	0	0	0	-0.938913	0
0.055208	0	0	0	0	0	0	61.070869	238.887268	-4.292703	0.84373	0	-0.313412	0	0	0	0	-0.688016	0
0.05625	0	0	0	0	0	0	59.585453	231.35849	-4.578901	0.843041	0	-0.313375	0	0	0	0	-0.450779	0
0.057292	0	0	0	0	0	0	58.108532	224.017517	-4.813994	0.84228	0	-0.313295	0	0	0	0	-0.227309	0
0.058333	0	0	0	0	0	0	56.643536	216.8638	-4.999517	0.841457	0	-0.313168	0	0	0	0	-0.017671	0
0.059375	0	0	0	0	0	0	55.19331	209.894958	-5.137577	0.840583	0	-0.312994	0	0	0	-0	0.178117	-0
0.060417	0	0	0	0	0	0	53.760124	203.107025	-5.230812	0.8396709999999999	0	-0.312772	0	0	0	-0	0.360079	-0
0.061458	0	0	0	0	0	0	52.345737	196.494598	-5.282342	0.838732	0	-0.312502	0	0	0	-0	0.528282	-0
0.0625	0	0	0	0	0	0	50.951469	190.051193	-5.295712	0.837781	0	-0.312186	0	0	0	-0	0.68283	-0
0.063542	0	0	0	0	0	0	49.578274	183.769379	-5.274823	0.836832	0	-0.311826	0	0	0	-0	0.82387	-0
0.064583	0	0	0	0	0	0	48.226833	177.641205	-5.223854	0.835898	0	-0.311424	0	0	0	-0	0.951583	-0
0.065625	0	0	0	0	0	0	46.897675	171.658401	-5.147186	0.834993	0	-0.310983	0	0	0	-0	1.066186	-0
0.066667	0	0	0	0	0	0	45.59124	165.812698	-5.049316	0.83413	0	-0.310509	0	0	0	-0	1.167929	-0
0.067708	0	0	0	0	0	0	44.307964	160.096069	-4.934771	0.833321	0	-0.310004	0	0	0	-0	1.257092	-0
0.06875000000000001	0	0	0	0	0	0	43.04834	154.501022	-4.808019	0.832577	0	-0.309473	0	0	0	-0	1.333983	-0
0.06979200000000001	0	0	0	0	0	0	41.812935	149.020828	-4.673393	0.831906	0	-0.308922	0	0	0	-0	1.398934	-0
0.07083299999999999	0	0	0	0	0	0	40.602409	143.649643	-4.535003	0.831318	0	-0.308356	0	0	0	-0	1.452305	-0
0.07187499999999999	0	0	0	0	0	0	39.417488	138.382751	-4.396666	0.8308179999999999	0	-0.307778	0	0	0	-0	1.494471	-0
0.072917	0	0	0	0	0	0	38.258942	133.216583	-4.261838	0.830411	0	-0.307193	0	0	0	-0	1.52583	-0
0.073958	0	0	0	0	0	0	37.127506	128.148865	-4.133561	0.830101	0	-0.306606	0	0	0	-0	1.546794	-0
0.075	0	0	0	0	0	0	36.023842	123.17852	-4.014408	0.82989	0	-0.30602	0	0	0	-0	1.557787	-0
0.076042	0	0	0	0	0	0	34.948463	118.305733	-3.906455	0.829777	0	-0.305437	0	0	0	-0	1.559245	-0
0.077083	0	0	0	0	0	0	33.901676	113.531822	-3.811254	0.829763	0	-0.30486	0	0	0	-0	1.551615	-0
0.078125	0	0	0	0	0	0	32.88353	108.859123	-3.729818	0.8298450000000001	0	-0.30429	0	0	0	-0	1.535347	-0
0.079167	0	0	0	0	0	0	31.893801	104.290878	-3.662631	0.830021	0	-0.303727	0	0	0	-0	1.510897	-0
0.080208	0	0	0	0	0	0	30.931969	99.830994	-3.609651	0.830288	0	-0.303172	0	0	0	-0	1.478723	-0
0.08125	0	0	0	0	0	0	29.997248	95.483932	-3.570344	0.830644	0	-0.302621	0	0	0	-0	1.439283	-0
0.082292	0	0	0	0	0	0	29.088614	91.25443300000001	-3.543713	0.831084	0	-0.302072	0	0	0	-0	1.393033	-0
0.083333	0	0	0	0	0	0	28.204865	87.147324	-3.528347	0.831608	0	-0.30152	0	0	0	-0	1.340428	-0
0.08437500000000001	0	0	0	0	0	0	27.344688	83.167343	-3.522478	0.832211	0	-0.30096	0	0	0	-0	1.281914	-0
0.08541700000000001	0	0	0	0	0	0	26.506737	79.31888600000001	-3.524035	0.832892	0	-0.300383	0	0	0	-0	1.217935	-0
